<?xml version="1.0" ?><!-- Uploaded to: SVG Repo, www.svgrepo.com, Generator: SVG Repo Mixer Tools -->
<svg width="800px" height="800px" viewBox="0 0 24 24" data-name="016_FOOD" id="_016_FOOD" xmlns="http://www.w3.org/2000/svg"><defs><style>.cls-1{fill:#333;}</style></defs><path class="cls-1" d="M8.68,15.31c-2.17-2.16-4.83-3-6-1.88s-.29,3.8,1.88,6,4.82,3,6,1.88S10.84,17.47,8.68,15.31ZM7.8,19c-.39.39-1.34.07-2.12-.71S4.58,16.58,5,16.19s1.34-.08,2.12.71S8.19,18.63,7.8,19Z"/><path class="cls-1" d="M9,21.94a6.81,6.81,0,0,1-4.82-2.12,6.39,6.39,0,0,1-1.23-8,9.45,9.45,0,0,1,9-4L13.47,6.3a2.89,2.89,0,0,1-.3-1.3,3,3,0,0,1,.88-2.12,3.07,3.07,0,0,1,4.24,0,3,3,0,0,1,.88,2,3,3,0,0,1,1.95.88A3,3,0,1,1,16.88,10a1,1,0,0,1,1.41-1.41,1,1,0,1,0,1.42-1.42A1,1,0,0,0,19,6.83,1.86,1.86,0,0,1,17.17,5a1,1,0,0,0-.29-.71,1,1,0,0,0-1.41,0,1,1,0,0,0-.3.71,1,1,0,0,0,.29.71,1,1,0,0,1,0,1.41L12.93,9.69a1,1,0,0,1-1,.25c-2-.68-5.8.56-7.28,3a4.38,4.38,0,0,0,1,5.51,4.38,4.38,0,0,0,5.52.93c2.39-1.41,3.63-5.14,3-7.2a1,1,0,0,1,1.91-.6c1,3.13-.88,7.76-3.86,9.52A6.12,6.12,0,0,1,9,21.94Z"/></svg>