<?xml version="1.0" encoding="UTF-8" standalone="no"?><!DOCTYPE svg PUBLIC "-//W3C//DTD SVG 1.1//EN" "http://www.w3.org/Graphics/SVG/1.1/DTD/svg11.dtd"><svg width="100%" height="100%" viewBox="0 0 948 290" version="1.1" xmlns="http://www.w3.org/2000/svg" xmlns:xlink="http://www.w3.org/1999/xlink" xml:space="preserve" xmlns:serif="http://www.serif.com/" style="fill-rule:evenodd;clip-rule:evenodd;stroke-linejoin:round;stroke-miterlimit:2;"><g id="Logo"><g><path d="M164.937,184.493c36.094,-5.016 19.052,49.44 8.977,64.682c-44.722,67.654 -160.472,46.271 -172.924,-29.609c-4.485,-27.33 6.238,-46.027 32.783,-20.123c6.338,6.186 13.276,21.864 23.734,15.674c18.081,-10.7 21.452,-29.673 51.896,-20.603c7.563,2.253 23.227,14.461 28.924,12.948c5.283,-1.404 12.12,-20.955 26.61,-22.969Zm-30.99,-177.801c6.41,8.996 -1.578,19.754 -7.136,26.802c6.038,-0.797 11.864,-3.007 18.088,-3.003c8.785,0.006 17.818,2.238 22.788,9.809c10.147,15.456 -9.02,38.191 -24.191,39.289c-27.581,-26.295 -71.792,-22.773 -82.287,-0.876c-20.624,-8.344 -28.467,-45.931 -12.2,-63.82c10.632,-11.691 32.044,-17.356 35.543,3.441c0.407,2.421 -0.852,5.727 1.179,7.479c4.323,-8.147 10.017,-16.204 18.13,-21.357c8.376,-5.319 23.285,-7.307 30.086,2.236Zm-129.655,176.941c-0.096,-6.907 0.672,-14.184 2.429,-21.797c8.862,-38.399 23.02,-68.456 46.101,-84.301c3.036,2.921 6.508,5.144 10.329,6.387c3.09,-7.806 13.4,-18.762 31.912,-18.762c49.677,0 86.226,58.827 88.342,108.344c0.14,3.285 0.083,6.532 -0.161,9.732c-3.279,-4.88 -9.043,-7.51 -18.307,-6.223c-14.49,2.014 -21.327,21.566 -26.61,22.969c-5.697,1.514 -21.361,-10.695 -28.924,-12.947c-30.444,-9.07 -33.815,9.903 -51.896,20.602c-10.458,6.191 -17.396,-9.488 -23.734,-15.674c-14.542,-14.19 -24.335,-14.996 -29.481,-8.33Zm73.046,-50.217c5.701,-3.305 -1.382,-24.634 -8.707,-26.32c-7.325,-1.685 -35.831,14.839 -34.207,19.83c1.624,4.99 37.213,9.795 42.914,6.49Zm-32.541,-43.191c-3.382,0.73 -7.205,4.991 -8.07,8.461c-2.512,10.078 9.923,14.448 15.928,4.997c4.694,-7.387 -0.119,-15.127 -7.858,-13.458Zm74.523,8.329c-5.235,1.1 -10.191,7.525 -10.61,12.76c-1.216,15.198 20.009,21.787 27.02,7.534c5.479,-11.139 -4.43,-22.812 -16.41,-20.294Z"/></g><g><g><path d="M284.743,239.654l5.967,-25.548l-22.943,0l-1.849,7.732l14.707,-0l-3.194,12.942c-4.93,3.193 -10.225,4.79 -15.883,4.79c-6.107,0 -10.883,-1.723 -14.329,-5.168c-3.445,-3.446 -5.168,-8.165 -5.168,-14.161c-0,-4.65 1.008,-9.047 3.025,-13.194c2.017,-4.146 4.888,-7.48 8.614,-10.001c3.726,-2.521 7.997,-3.782 12.816,-3.782c4.482,0 8.207,0.954 11.178,2.858c2.968,1.905 4.454,4.37 4.454,7.395c-0,0.336 -0.057,0.897 -0.168,1.681l8.824,-0c0.336,-1.513 0.504,-2.913 0.504,-4.202c-0,-3.641 -1.233,-6.61 -3.698,-8.908c-2.466,-2.297 -5.519,-3.963 -9.16,-5.001c-3.643,-1.036 -7.284,-1.554 -10.925,-1.554c-6.612,-0 -12.593,1.625 -17.943,4.874c-5.351,3.25 -9.538,7.578 -12.564,12.984c-3.025,5.407 -4.538,11.276 -4.538,17.606c0,5.379 1.162,10.043 3.488,13.993c2.324,3.95 5.602,6.975 9.833,9.076c4.229,2.101 9.173,3.152 14.832,3.152c3.698,-0 7.073,-0.406 10.127,-1.219c3.053,-0.811 5.518,-1.694 7.396,-2.647c1.876,-0.952 4.076,-2.185 6.597,-3.698Z" style="fill-rule:nonzero;"/><path d="M333.822,203.517c-1.345,-0.448 -3.11,-0.672 -5.295,-0.672c-3.081,-0 -5.995,0.645 -8.74,1.933c-2.745,1.289 -5.183,3.109 -7.311,5.462c0.055,-2.072 -0.617,-3.739 -2.017,-5c-1.401,-1.261 -3.25,-1.891 -5.547,-1.891c-1.233,0 -2.367,0.155 -3.403,0.462c-1.038,0.309 -1.723,0.603 -2.059,0.883l-0.673,5.294c0.896,-0.336 1.736,-0.504 2.522,-0.504c0.727,-0 1.302,0.197 1.722,0.588c0.421,0.393 0.631,0.954 0.631,1.681l-0.168,1.008l-7.564,33.028l8.488,-0l5.547,-24.035c1.399,-3.753 3.389,-6.597 5.966,-8.53c2.577,-1.933 5.323,-2.9 8.236,-2.9c2.353,0 4.734,0.477 7.144,1.429l2.521,-8.236Z" style="fill-rule:nonzero;"/><path d="M370.379,237.805c0,-0.168 0.055,-0.532 0.168,-1.092l6.135,-26.809c-2.466,-2.072 -5.239,-3.809 -8.32,-5.21c-3.082,-1.4 -6.752,-2.101 -11.009,-2.101c-4.706,-0 -8.881,1.163 -12.522,3.487c-3.643,2.326 -6.443,5.435 -8.404,9.329c-1.962,3.894 -2.941,8.138 -2.941,12.732c-0,3.978 0.742,7.368 2.227,10.168c1.484,2.803 3.501,4.904 6.051,6.303c2.548,1.402 5.391,2.101 8.53,2.101c4.649,0 8.572,-1.456 11.765,-4.37c0.56,1.345 1.484,2.395 2.773,3.152c1.289,0.756 2.829,1.134 4.623,1.134c1.512,0 2.632,-0.153 3.361,-0.462c0.728,-0.307 1.513,-0.714 2.353,-1.218l1.177,-5.295c-0.897,0.336 -1.933,0.504 -3.11,0.504c-1.905,0 -2.857,-0.784 -2.857,-2.353Zm-25.422,-1.008c-1.989,-2.129 -2.983,-5.127 -2.983,-8.992c-0,-3.362 0.616,-6.415 1.849,-9.161c1.231,-2.744 2.969,-4.902 5.21,-6.471c2.24,-1.568 4.874,-2.353 7.9,-2.353c1.96,0 3.782,0.309 5.462,0.925c1.681,0.617 3.362,1.485 5.043,2.605l-5.547,24.119l-0.084,0.336c-2.802,1.458 -5.659,2.185 -8.572,2.185c-3.53,0 -6.29,-1.063 -8.278,-3.193Z" style="fill-rule:nonzero;"/><path d="M429.459,239.654c-1.009,0.336 -2.074,0.504 -3.194,0.504c-1.849,0 -2.773,-0.784 -2.773,-2.353c0,-0.448 0.028,-0.811 0.084,-1.092l3.614,-15.548c0.504,-2.185 0.756,-4.173 0.756,-5.966c0,-4.034 -1.191,-7.102 -3.572,-9.203c-2.382,-2.101 -5.701,-3.151 -9.958,-3.151c-2.971,-0 -5.687,0.491 -8.152,1.471c-2.466,0.98 -4.567,2.283 -6.303,3.907c-0.393,-1.568 -1.233,-2.773 -2.521,-3.613c-1.29,-0.841 -2.886,-1.261 -4.79,-1.261c-1.233,0 -2.382,0.155 -3.446,0.462c-1.065,0.309 -1.765,0.603 -2.101,0.883l-1.093,5.294c1.232,-0.336 2.185,-0.504 2.858,-0.504c1.624,-0 2.437,0.756 2.437,2.269l-0.168,1.008l-7.564,33.028l8.488,-0l7.06,-30.506c1.344,-1.793 3.053,-3.152 5.126,-4.076c2.072,-0.925 4.257,-1.387 6.555,-1.387c2.633,0 4.677,0.603 6.135,1.807c1.456,1.205 2.185,3.04 2.185,5.505c-0,1.176 -0.168,2.521 -0.504,4.033l-3.698,16.304c-0.225,0.84 -0.336,1.681 -0.336,2.521c-0,2.13 0.714,3.769 2.143,4.917c1.429,1.149 3.319,1.722 5.673,1.722c1.512,0 2.647,-0.153 3.403,-0.462c0.756,-0.307 1.555,-0.714 2.395,-1.218l1.261,-5.295Z" style="fill-rule:nonzero;"/><path d="M447.863,195.029c0.896,0.897 2.101,1.345 3.614,1.345c1.904,-0 3.446,-0.644 4.622,-1.933c1.177,-1.288 1.765,-2.773 1.765,-4.454c0,-1.456 -0.462,-2.633 -1.386,-3.53c-0.925,-0.895 -2.143,-1.345 -3.656,-1.345c-1.906,0 -3.433,0.645 -4.58,1.933c-1.149,1.29 -1.723,2.774 -1.723,4.454c-0,1.458 0.448,2.635 1.344,3.53Zm5.463,13.278c0,-3.416 -2.269,-5.126 -6.807,-5.126c-1.29,-0 -2.521,0.126 -3.698,0.378c-1.176,0.252 -2.13,0.575 -2.857,0.967l-1.177,5.294c1.4,-0.336 2.381,-0.504 2.942,-0.504c0.784,-0 1.386,0.197 1.806,0.588c0.421,0.393 0.631,0.953 0.631,1.681c-0,0.224 -0.057,0.561 -0.168,1.008l-8.32,35.885c-1.177,4.875 -3.838,7.312 -7.984,7.312c-1.569,-0 -3.067,-0.294 -4.496,-0.883c-1.429,-0.588 -2.676,-1.273 -3.74,-2.059l-2.101,3.614c0.952,1.345 2.507,2.634 4.664,3.866c2.156,1.233 4.665,1.849 7.522,1.849c3.809,-0 6.975,-1.232 9.496,-3.698c2.522,-2.465 4.286,-5.938 5.295,-10.421l8.656,-37.313c0.223,-0.841 0.336,-1.652 0.336,-2.438Z" style="fill-rule:nonzero;"/><path d="M494.673,237.805c0,-0.168 0.056,-0.532 0.169,-1.092l6.134,-26.809c-2.466,-2.072 -5.239,-3.809 -8.319,-5.21c-3.082,-1.4 -6.753,-2.101 -11.01,-2.101c-4.706,-0 -8.88,1.163 -12.522,3.487c-3.642,2.326 -6.443,5.435 -8.403,9.329c-1.962,3.894 -2.942,8.138 -2.942,12.732c0,3.978 0.742,7.368 2.227,10.168c1.484,2.803 3.501,4.904 6.051,6.303c2.549,1.402 5.392,2.101 8.53,2.101c4.65,0 8.572,-1.456 11.766,-4.37c0.559,1.345 1.483,2.395 2.773,3.152c1.288,0.756 2.828,1.134 4.622,1.134c1.513,0 2.633,-0.153 3.362,-0.462c0.727,-0.307 1.512,-0.714 2.353,-1.218l1.176,-5.295c-0.897,0.336 -1.933,0.504 -3.109,0.504c-1.906,0 -2.858,-0.784 -2.858,-2.353Zm-25.421,-1.008c-1.99,-2.129 -2.984,-5.127 -2.984,-8.992c0,-3.362 0.616,-6.415 1.849,-9.161c1.232,-2.744 2.969,-4.902 5.21,-6.471c2.241,-1.568 4.875,-2.353 7.9,-2.353c1.961,0 3.782,0.309 5.463,0.925c1.681,0.617 3.361,1.485 5.042,2.605l-5.547,24.119l-0.084,0.336c-2.802,1.458 -5.659,2.185 -8.572,2.185c-3.529,0 -6.289,-1.063 -8.277,-3.193Z" style="fill-rule:nonzero;"/><path d="M565.519,236.713l10.084,-44.037c0.224,-0.896 0.337,-1.849 0.337,-2.857c-0,-2.017 -0.645,-3.53 -1.933,-4.538c-1.29,-1.009 -3.139,-1.513 -5.547,-1.513c-1.681,-0 -3.138,0.14 -4.37,0.42l-1.345,6.135c1.232,-0.112 1.904,-0.168 2.017,-0.168c0.841,-0 1.442,0.113 1.807,0.336c0.364,0.225 0.547,0.617 0.547,1.177c-0,0.168 -0.057,0.588 -0.169,1.26l-3.361,14.875c-3.194,-3.305 -7.2,-4.958 -12.018,-4.958c-4.09,-0 -7.9,1.134 -11.429,3.403c-3.53,2.269 -6.332,5.393 -8.404,9.371c-2.074,3.979 -3.11,8.433 -3.11,13.362c0,5.883 1.555,10.309 4.665,13.278c3.109,2.971 7.044,4.454 11.807,4.454c4.538,0 8.459,-1.428 11.766,-4.286c0.504,1.402 1.414,2.452 2.731,3.152c1.316,0.701 2.815,1.05 4.496,1.05c1.568,0 2.787,-0.168 3.656,-0.504c0.868,-0.336 1.666,-0.727 2.395,-1.176l1.176,-5.295c-1.008,0.336 -2.073,0.504 -3.193,0.504c-1.849,0 -2.773,-0.756 -2.773,-2.269c-0,-0.223 0.055,-0.616 0.168,-1.176Zm-17.564,3.277c-7.228,0 -10.842,-3.921 -10.842,-11.765c0,-3.585 0.616,-6.779 1.849,-9.581c1.232,-2.801 2.955,-4.971 5.169,-6.513c2.212,-1.54 4.719,-2.311 7.521,-2.311c3.53,0 7.031,1.401 10.505,4.202l-5.378,23.447l-0.084,0.336c-3.026,1.458 -5.94,2.185 -8.74,2.185Z" style="fill-rule:nonzero;"/><path d="M612.119,224.989c4.173,-2.773 6.261,-6.484 6.261,-11.135c-0,-3.585 -1.345,-6.387 -4.034,-8.404c-2.69,-2.017 -6.164,-3.025 -10.421,-3.025c-4.874,-0 -9.287,1.191 -13.236,3.571c-3.95,2.382 -7.047,5.547 -9.287,9.497c-2.241,3.95 -3.361,8.194 -3.361,12.732c-0,5.939 1.933,10.534 5.798,13.782c3.866,3.25 8.936,4.875 15.212,4.875c2.968,-0 5.826,-0.448 8.572,-1.345c2.744,-0.896 4.958,-1.933 6.639,-3.11l-1.933,-5.882c-2.074,1.008 -4.034,1.793 -5.883,2.353c-1.849,0.56 -3.979,0.84 -6.387,0.84c-3.866,0 -7.046,-0.895 -9.538,-2.689c-2.494,-1.793 -3.853,-4.566 -4.076,-8.32c2.296,0.281 4.874,0.42 7.731,0.42c7.787,0 13.768,-1.386 17.943,-4.16Zm-17.859,-1.891c-2.13,0 -4.51,-0.168 -7.143,-0.504c0.952,-3.866 2.843,-7.129 5.673,-9.791c2.828,-2.66 6.12,-3.991 9.874,-3.991c2.185,-0 3.95,0.491 5.295,1.47c1.344,0.981 2.017,2.368 2.017,4.16c-0,2.634 -1.359,4.735 -4.076,6.303c-2.718,1.569 -6.597,2.353 -11.64,2.353Z" style="fill-rule:nonzero;"/><path d="M690.696,191.626c-3.334,-3.11 -8.194,-4.665 -14.581,-4.665l-19.245,0l-13.615,58.828l8.993,-0l4.033,-17.732l12.018,-0c5.322,-0 10.07,-1.162 14.245,-3.488c4.173,-2.324 7.408,-5.379 9.706,-9.16c2.297,-3.782 3.446,-7.745 3.446,-11.892c-0,-4.818 -1.668,-8.782 -5,-11.891Zm-13.027,27.102c-2.661,1.345 -5.561,2.017 -8.698,2.017l-11.009,0l6.135,-26.808l10.337,-0c3.977,-0 6.961,0.882 8.95,2.647c1.988,1.765 2.984,4.357 2.984,7.774c-0,3.249 -0.786,6.121 -2.354,8.614c-1.569,2.493 -3.684,4.412 -6.345,5.756Z" style="fill-rule:nonzero;"/><path d="M705.066,244.57c2.942,1.597 6.373,2.396 10.295,2.396c4.986,-0 9.356,-1.205 13.11,-3.614c3.753,-2.408 6.639,-5.56 8.656,-9.455c2.017,-3.893 3.026,-7.996 3.026,-12.311c-0,-3.81 -0.813,-7.157 -2.437,-10.043c-1.626,-2.885 -3.908,-5.127 -6.85,-6.723c-2.941,-1.597 -6.373,-2.395 -10.294,-2.395c-4.931,-0 -9.274,1.218 -13.027,3.655c-3.754,2.437 -6.639,5.618 -8.656,9.539c-2.017,3.922 -3.025,8.04 -3.025,12.354c0,3.697 0.798,6.989 2.395,9.874c1.597,2.886 3.866,5.127 6.807,6.723Zm19.54,-7.479c-2.354,1.821 -5.211,2.731 -8.573,2.731c-3.586,0 -6.429,-1.078 -8.53,-3.235c-2.101,-2.156 -3.151,-5.112 -3.151,-8.866c-0,-2.801 0.588,-5.589 1.765,-8.362c1.176,-2.774 2.941,-5.085 5.294,-6.934c2.353,-1.849 5.211,-2.773 8.572,-2.773c3.642,0 6.499,1.093 8.572,3.278c2.072,2.185 3.11,5.155 3.11,8.908c-0,2.802 -0.588,5.588 -1.765,8.362c-1.177,2.773 -2.941,5.071 -5.294,6.891Z" style="fill-rule:nonzero;"/><path d="M780.744,208.475c-5.211,-3.977 -10.841,-5.966 -16.892,-5.966c-3.306,-0 -6.177,0.575 -8.614,1.722c-2.437,1.149 -4.286,2.69 -5.547,4.623c-1.26,1.933 -1.891,4.076 -1.891,6.429c0,2.185 0.532,3.992 1.597,5.42c1.064,1.429 2.353,2.55 3.866,3.362c1.513,0.813 3.53,1.695 6.051,2.647c3.025,1.177 5.265,2.269 6.723,3.278c1.456,1.008 2.185,2.437 2.185,4.286c0,1.737 -0.687,3.123 -2.059,4.16c-1.373,1.037 -3.432,1.554 -6.177,1.554c-3.138,0 -6.038,-0.574 -8.698,-1.723c-2.662,-1.147 -5.057,-2.618 -7.185,-4.412l-3.698,5.715c2.24,2.13 5.097,3.895 8.572,5.295c3.473,1.401 7.087,2.101 10.841,2.101c3.362,-0 6.345,-0.574 8.95,-1.723c2.605,-1.148 4.622,-2.759 6.051,-4.833c1.429,-2.072 2.143,-4.454 2.143,-7.143c0,-2.408 -0.588,-4.398 -1.765,-5.967c-1.176,-1.568 -2.592,-2.786 -4.244,-3.655c-1.653,-0.868 -3.768,-1.778 -6.345,-2.732c-2.857,-1.12 -4.945,-2.114 -6.261,-2.983c-1.317,-0.868 -1.975,-2.087 -1.975,-3.656c0,-1.456 0.631,-2.689 1.891,-3.698c1.261,-1.008 3.039,-1.512 5.337,-1.512c2.353,-0 4.692,0.491 7.017,1.47c2.324,0.981 4.412,2.2 6.261,3.656l3.866,-5.715Z" style="fill-rule:nonzero;"/><path d="M798.056,246.882c2.744,-0 5.602,-0.56 8.572,-1.681l0.252,-6.219c-2.353,0.785 -4.651,1.176 -6.891,1.176c-1.737,0 -3.096,-0.378 -4.076,-1.134c-0.981,-0.757 -1.471,-1.835 -1.471,-3.236c0,-0.672 0.055,-1.204 0.168,-1.596l5.463,-23.952l12.354,0l1.428,-6.219l-12.269,0l2.353,-10.505l-8.74,1.261l-2.185,9.244l-6.555,0l-1.429,6.219l6.471,0l-5.379,23.952c-0.336,1.344 -0.504,2.55 -0.504,3.613c0,3.25 1.177,5.576 3.53,6.976c2.353,1.401 5.322,2.101 8.908,2.101Z" style="fill-rule:nonzero;"/><path d="M854.194,237.889c0,-0.223 0.056,-0.616 0.168,-1.176l7.648,-32.944l-8.488,0l-7.563,32.608c-3.082,2.185 -6.5,3.277 -10.253,3.277c-3.082,0 -5.366,-0.588 -6.849,-1.765c-1.486,-1.176 -2.228,-3.053 -2.228,-5.63c0,-1.289 0.224,-2.913 0.673,-4.875l3.529,-15.379c0.169,-0.784 0.253,-1.513 0.253,-2.185c-0,-2.017 -0.66,-3.599 -1.975,-4.748c-1.317,-1.148 -3.124,-1.723 -5.421,-1.723c-1.289,0 -2.452,0.155 -3.488,0.462c-1.037,0.309 -1.751,0.603 -2.143,0.883l-1.092,5.294c1.232,-0.336 2.213,-0.504 2.941,-0.504c1.513,-0 2.269,0.756 2.269,2.269c0,0.449 -0.029,0.785 -0.084,1.008l-3.361,14.707c-0.504,2.185 -0.757,4.202 -0.757,6.051c0,4.202 1.232,7.452 3.698,9.749c2.465,2.298 6.022,3.445 10.673,3.445c2.408,0 4.762,-0.405 7.059,-1.218c2.297,-0.812 4.398,-1.975 6.303,-3.488c0.392,1.458 1.274,2.592 2.648,3.404c1.372,0.813 3.011,1.218 4.916,1.218c2.297,0 4.202,-0.559 5.715,-1.68l0.756,-5.295c-0.785,0.336 -1.681,0.504 -2.689,0.504c-1.906,0 -2.858,-0.756 -2.858,-2.269Z" style="fill-rule:nonzero;"/><path d="M904.702,203.517c-1.344,-0.448 -3.109,-0.672 -5.294,-0.672c-3.082,-0 -5.996,0.645 -8.74,1.933c-2.746,1.289 -5.183,3.109 -7.312,5.462c0.055,-2.072 -0.617,-3.739 -2.017,-5c-1.401,-1.261 -3.25,-1.891 -5.546,-1.891c-1.233,0 -2.368,0.155 -3.404,0.462c-1.037,0.309 -1.723,0.603 -2.059,0.883l-0.672,5.294c0.895,-0.336 1.736,-0.504 2.521,-0.504c0.727,-0 1.302,0.197 1.723,0.588c0.42,0.393 0.63,0.954 0.63,1.681l-0.168,1.008l-7.564,33.028l8.488,-0l5.547,-24.035c1.4,-3.753 3.389,-6.597 5.967,-8.53c2.576,-1.933 5.322,-2.9 8.236,-2.9c2.353,0 4.733,0.477 7.143,1.429l2.521,-8.236Z" style="fill-rule:nonzero;"/><path d="M941.259,237.805c0,-0.168 0.055,-0.532 0.168,-1.092l6.135,-26.809c-2.466,-2.072 -5.239,-3.809 -8.32,-5.21c-3.082,-1.4 -6.752,-2.101 -11.009,-2.101c-4.706,-0 -8.88,1.163 -12.522,3.487c-3.642,2.326 -6.443,5.435 -8.404,9.329c-1.961,3.894 -2.941,8.138 -2.941,12.732c-0,3.978 0.742,7.368 2.227,10.168c1.484,2.803 3.501,4.904 6.051,6.303c2.549,1.402 5.392,2.101 8.53,2.101c4.65,0 8.572,-1.456 11.765,-4.37c0.56,1.345 1.484,2.395 2.774,3.152c1.288,0.756 2.828,1.134 4.622,1.134c1.513,0 2.633,-0.153 3.361,-0.462c0.728,-0.307 1.513,-0.714 2.354,-1.218l1.176,-5.295c-0.897,0.336 -1.933,0.504 -3.109,0.504c-1.906,0 -2.858,-0.784 -2.858,-2.353Zm-25.422,-1.008c-1.989,-2.129 -2.983,-5.127 -2.983,-8.992c-0,-3.362 0.616,-6.415 1.849,-9.161c1.232,-2.744 2.969,-4.902 5.21,-6.471c2.24,-1.568 4.875,-2.353 7.9,-2.353c1.96,0 3.782,0.309 5.463,0.925c1.68,0.617 3.361,1.485 5.042,2.605l-5.547,24.119l-0.084,0.336c-2.802,1.458 -5.659,2.185 -8.572,2.185c-3.529,0 -6.29,-1.063 -8.278,-3.193Z" style="fill-rule:nonzero;"/></g><g><path d="M317.563,131.555c0.897,1.111 1.731,2.907 2.5,5.386c0.77,2.479 1.155,5.066 1.155,7.759c-0,6.156 -1.571,11.157 -4.713,15.005c-3.143,3.847 -7.877,5.771 -14.204,5.771c-8.464,0 -19.002,-2.244 -31.613,-6.733c-4.061,3.933 -9.362,5.899 -15.903,5.899c-7.139,0 -12.557,-1.677 -16.255,-5.033c-3.698,-3.356 -5.547,-8.069 -5.547,-14.14c0,-6.54 1.667,-11.649 5.002,-15.325l5.13,0.769c-0,-15.389 -0.15,-26.034 -0.449,-31.933l-7.438,-0.77c-1.069,-2.223 -1.604,-4.895 -1.604,-8.015c0,-6.498 1.572,-11.307 4.714,-14.428c3.142,-3.121 7.662,-4.574 13.562,-4.361c1.624,0.043 7.684,0.278 18.179,0.706c10.495,0.427 19.226,0.641 26.194,0.641c7.995,0 15.134,-0.577 21.418,-1.731c0.855,1.325 1.528,3.163 2.02,5.514c0.491,2.352 0.737,4.425 0.737,6.22c0,5.515 -1.688,10.153 -5.066,13.915c-3.377,3.762 -8.165,5.643 -14.363,5.643c-5.301,0 -12.932,-0.235 -22.893,-0.705l0,5.707c9.405,0.812 18.126,0.812 26.163,-0c1.753,2.18 2.629,6.07 2.629,11.67c0,2.693 -0.898,5.098 -2.693,7.214c-1.796,2.116 -4.489,3.174 -8.08,3.174c-5.044,0 -11.008,-0.406 -17.89,-1.218l-0,6.733c6.54,0.513 12.376,0.769 17.505,0.769c4.746,0 9.192,-0.384 13.338,-1.154c4.147,-0.769 6.968,-1.752 8.465,-2.949Z" style="fill-rule:nonzero;"/><path d="M401.95,129.054c0.769,1.197 1.421,2.992 1.955,5.386c0.535,2.394 0.802,5.023 0.802,7.887c-0,6.541 -1.731,11.895 -5.194,16.063c-3.463,4.168 -8.614,6.252 -15.454,6.252c-8.721,0 -16.822,-2.394 -24.303,-7.181c-4.531,4.787 -10.131,7.181 -16.8,7.181c-4.917,0 -8.839,-1.731 -11.767,-5.194c-2.928,-3.462 -4.393,-8.549 -4.393,-15.261c0,-6.583 0.92,-11.671 2.758,-15.262l4.745,0.834c0.171,-29.283 -0.705,-48.114 -2.629,-56.493c2.095,-1.111 5.172,-2.041 9.234,-2.789c4.061,-0.749 7.866,-1.123 11.414,-1.123c8.763,0 14.823,1.411 18.179,4.233c3.356,2.821 5.034,7.887 5.034,15.197c-0,7.909 -1.347,22.208 -4.04,42.899c14.492,-0 24.645,-0.877 30.459,-2.629Z" style="fill-rule:nonzero;"/><path d="M479.86,164.963c-15.048,0 -22.572,-5.002 -22.572,-15.005c0,-20.434 0.513,-36.358 1.539,-47.772c-7.652,-0 -13.765,1.09 -18.339,3.27c-1.667,-1.325 -2.982,-3.43 -3.944,-6.316c-0.961,-2.886 -1.442,-6.252 -1.442,-10.1c-0,-5.728 1.742,-10.185 5.226,-13.369c3.484,-3.185 8.346,-4.778 14.588,-4.778c2.779,0 9.875,0.129 21.289,0.385c11.414,0.257 18.938,0.385 22.572,0.385c7.523,-0 13.038,-0.257 16.543,-0.77c3.164,2.779 4.746,7.866 4.746,15.262c-0,5.301 -1.251,9.597 -3.752,12.889c-2.5,3.291 -6.337,4.937 -11.51,4.937c-0.641,0 -1.389,-0.032 -2.244,-0.096c-0.855,-0.064 -1.881,-0.16 -3.078,-0.288c-1.197,-0.129 -2.223,-0.214 -3.078,-0.257c-0.599,8.122 -0.898,21.653 -0.898,40.59c0,7.524 0.428,13.039 1.283,16.544c-2.779,2.993 -8.422,4.489 -16.929,4.489Z" style="fill-rule:nonzero;"/><path d="M603.427,132.516c5.942,4.917 11.948,8.508 18.018,10.773c-0.427,2.736 -1.186,5.365 -2.276,7.887c-1.09,2.523 -2.533,4.895 -4.328,7.118c-1.796,2.223 -4.094,3.997 -6.894,5.322c-2.8,1.326 -5.931,1.988 -9.394,1.988c-7.053,0 -12.803,-2.49 -17.249,-7.47c-4.446,-4.98 -7.225,-11.425 -8.336,-19.333c-3.035,-0 -5.493,-0.171 -7.374,-0.513c0.128,11.371 0.577,18.553 1.346,21.545c-2.009,1.454 -4.766,2.619 -8.272,3.495c-3.505,0.876 -7.096,1.314 -10.773,1.314c-12.867,0 -19.301,-4.937 -19.301,-14.812c0,-6.498 0.331,-15.101 0.994,-25.81c0.663,-10.709 1.721,-17.11 3.174,-19.205l0,-0.128c-2.693,0.769 -5.664,1.731 -8.913,2.885c-0.983,-2.607 -1.475,-5.728 -1.475,-9.362c0,-6.412 1.411,-11.628 4.232,-15.646c2.822,-4.018 7.556,-7.096 14.204,-9.234c6.647,-2.137 15.443,-3.206 26.387,-3.206c21.032,-0 32.852,4.937 35.46,14.813c5.942,1.026 10.463,3.59 13.562,7.694c3.1,4.104 4.649,9.042 4.649,14.813c0,5.044 -1.475,9.768 -4.424,14.171c-2.95,4.404 -7.289,8.037 -13.017,10.901Zm-38.09,-17.249c2.608,0.385 4.446,0.577 5.515,0.577c3.12,0 5.675,-0.652 7.663,-1.956c1.987,-1.303 2.981,-3.067 2.981,-5.29c0,-2.65 -1.442,-4.692 -4.328,-6.124c-2.886,-1.432 -6.787,-2.148 -11.703,-2.148l-0.128,0l0,14.941Z" style="fill-rule:nonzero;"/><path d="M666.717,164.642c-12.226,0 -21.503,-2.789 -27.83,-8.368c-6.327,-5.578 -9.49,-13.861 -9.49,-24.848c-0,-4.146 0.128,-9.34 0.385,-15.582c0.256,-6.241 0.502,-11.617 0.737,-16.127c0.235,-4.51 0.31,-9.041 0.224,-13.594c-0.085,-4.553 -0.406,-8.048 -0.961,-10.484c2.137,-1.539 5.172,-2.843 9.105,-3.912c3.933,-1.069 8.037,-1.603 12.312,-1.603c6.327,-0 11.318,1.485 14.973,4.457c3.655,2.971 5.482,7.171 5.482,12.6c0,2.479 -0.213,8.389 -0.641,17.73c-0.427,9.341 -0.641,15.871 -0.641,19.59c-0,4.745 0.609,8.4 1.827,10.965c1.219,2.565 3.025,3.848 5.419,3.848c2.522,-0 4.435,-1.721 5.739,-5.162c1.304,-3.442 1.956,-9.202 1.956,-17.282c-0,-6.369 -0.663,-13.487 -1.988,-21.353c-1.325,-7.866 -2.843,-13.958 -4.553,-18.275c1.881,-1.967 4.756,-3.645 8.625,-5.034c3.869,-1.389 8.475,-2.084 13.818,-2.084c2.95,-0 5.686,0.641 8.208,1.924c2.523,1.282 4.81,3.27 6.862,5.963c2.052,2.693 3.665,6.359 4.841,10.997c1.176,4.639 1.763,10.036 1.763,16.192c0,5.728 -0.449,11.029 -1.346,15.902c-0.898,4.874 -2.287,9.395 -4.168,13.563c-1.881,4.168 -4.489,7.566 -7.823,10.195c-3.335,2.629 -7.246,4.243 -11.735,4.842c-1.197,4.189 -4.414,7.727 -9.651,10.612c-5.236,2.886 -12.386,4.328 -21.449,4.328Z" style="fill-rule:nonzero;"/><path d="M778.1,164.642c-9.405,0 -17.816,-1.603 -25.233,-4.809c-7.417,-3.206 -13.295,-7.93 -17.634,-14.171c-4.339,-6.242 -6.508,-13.552 -6.508,-21.931c-0,-8.678 2.084,-16.031 6.252,-22.058c4.168,-6.028 10.099,-9.939 17.794,-11.735c3.42,-13.209 13.808,-19.814 31.164,-19.814c6.712,-0 12.697,0.919 17.955,2.757c5.258,1.838 9.437,4.606 12.536,8.304c3.099,3.698 4.649,8.069 4.649,13.114c0,2.65 -0.716,5.525 -2.148,8.624c-1.432,3.1 -3.153,5.611 -5.162,7.535c-4.232,-2.309 -8.368,-4.051 -12.408,-5.226c-4.04,-1.176 -8.539,-1.764 -13.498,-1.764c-5.386,0 -9.64,1.518 -12.761,4.553c-3.12,3.035 -4.681,6.776 -4.681,11.222c0,4.788 1.603,8.453 4.81,10.997c3.206,2.544 7.994,3.815 14.363,3.815c9.106,0 17.164,-1.923 24.175,-5.771c2.223,1.454 3.997,3.516 5.322,6.188c1.325,2.672 1.988,5.526 1.988,8.561c0,6.669 -3.762,11.937 -11.286,15.806c-7.524,3.869 -17.42,5.803 -29.689,5.803Z" style="fill-rule:nonzero;"/><path d="M876.274,164.642c-5.558,0 -10.837,-0.545 -15.839,-1.635c-5.002,-1.09 -9.619,-2.789 -13.851,-5.098c-4.232,-2.308 -7.898,-5.129 -10.997,-8.464c-3.099,-3.334 -5.515,-7.353 -7.246,-12.055c-1.731,-4.703 -2.597,-9.875 -2.597,-15.518c-0,-5.13 1.133,-10.057 3.399,-14.781c2.265,-4.723 5.568,-8.678 9.907,-11.863c4.339,-3.184 9.223,-4.948 14.652,-5.29c0.556,-3.334 1.742,-6.295 3.559,-8.881c1.817,-2.586 4.082,-4.66 6.797,-6.22c2.715,-1.56 5.718,-2.736 9.009,-3.527c3.292,-0.791 6.776,-1.186 10.453,-1.186c9.191,-0 17.452,1.87 24.783,5.611c7.332,3.74 13.114,9.105 17.346,16.095c4.232,6.989 6.348,15.037 6.348,24.142c0,9.576 -2.372,18.073 -7.118,25.49c-4.745,7.417 -11.339,13.134 -19.782,17.153c-8.443,4.018 -18.051,6.027 -28.823,6.027Zm3.077,-25.2c6.969,-0 10.453,-7.032 10.453,-21.097c-0,-6.797 -0.93,-11.916 -2.79,-15.358c-1.859,-3.441 -4.414,-5.162 -7.663,-5.162c-3.291,0 -5.845,1.71 -7.662,5.13c-1.817,3.42 -2.726,8.55 -2.726,15.39c0,7.31 0.866,12.654 2.597,16.031c1.732,3.377 4.329,5.066 7.791,5.066Z" style="fill-rule:nonzero;"/></g></g></g></svg>